<?xml version="1.0" encoding="UTF-8"?><svg id="Layer_1" xmlns="http://www.w3.org/2000/svg" viewBox="0 0 81.44 81.44"><defs><style>.cls-1{fill:#fff;}.cls-2{fill:#aece71;}.cls-3{fill:#85bc4f;}.cls-4{fill:#5cae3e;}.cls-5{fill:#7bb94f;}.cls-6{fill:#50a734;}.cls-7{opacity:.94;}.cls-8{opacity:.86;}</style></defs><g id="Group_3731"><path id="Path_3098" class="cls-1" d="M40.72,0c22.49,0,40.72,18.23,40.72,40.72s-18.23,40.72-40.72,40.72S0,63.21,0,40.72,18.23,0,40.72,0Z"/><g id="Group_3692" class="cls-7"><g id="Group_1077" class="cls-8"><g id="Group_1076"><path id="Path_2910" class="cls-3" d="M67.3,21.36c-.37-2.4-1.16-4.71-2.34-6.84-.51,2.78-1.39,5.49-2.63,8.03"/><path id="Path_2911" class="cls-2" d="M58.91,41.32c6.23-4.46,9.47-12,8.44-19.58l-5.23,1.26c-3.52,5.55-8.6,9.94-14.59,12.63"/><path id="Path_2912" class="cls-5" d="M39.2,51.27c6.86-2.23,13.34-5.47,19.24-9.61l-11.33-5.71c-1.61,.87-3.37,1.74-5.3,2.63-3.66,1.68-7.21,3.59-10.63,5.7"/><path id="Path_2913" class="cls-6" d="M14.45,61.97c3.79-3.54,13.87-6.4,24.2-10.4l-7.9-6.95c-14.74,8.37-16.29,17.35-16.29,17.35"/><path id="Path_2914" class="cls-2" d="M55.78,28.92c4.45-3.68,7.53-8.75,8.74-14.4-2.96,1.87-6.11,3.42-9.39,4.63"/><path id="Path_2915" class="cls-6" d="M20.22,35.69c-12.78,10.27-6.01,26.09-6.01,26.09,1.06-5.2,4.01-9.83,8.29-12.97"/><path id="Path_2916" class="cls-3" d="M38.4,38.91c1.1-.55,1.59-.87,2.8-1.42,5-2.19,9.73-4.96,14.08-8.26l-.64-9.87c-5.59,2.49-11.3,4.37-16.77,6.87"/><path id="Path_2917" class="cls-4" d="M23.04,48.38c4.57-3.64,9.55-6.74,14.83-9.24l-.6-12.66c-2.78,1.16-6.42,2.98-8.14,3.8-2.99,1.31-5.8,3.01-8.34,5.06"/></g></g></g></g></svg>