<svg id="Component_27_1" data-name="Component 27 – 1" xmlns="http://www.w3.org/2000/svg" width="16" height="16" viewBox="0 0 16 16">
  <path id="account-reactivate-outline" d="M17.6,7.6h-4l1.488-1.488A6.4,6.4,0,0,0,4.912,13.88,6.729,6.729,0,0,1,10,12a6.716,6.716,0,0,1,5.088,1.88A6.356,6.356,0,0,0,16.4,10H18a8,8,0,1,1-1.776-5.024L17.6,3.6v4M10,16.4a6.337,6.337,0,0,0,4-1.408c-.512-.808-2.04-1.392-4-1.392s-3.488.584-4,1.392A6.337,6.337,0,0,0,10,16.4M10,5.2A2.8,2.8,0,1,1,7.2,8,2.8,2.8,0,0,1,10,5.2m0,1.6A1.2,1.2,0,1,0,11.2,8,1.2,1.2,0,0,0,10,6.8Z" transform="translate(-2 -2)" fill="#474747"/>
</svg>
