<svg id="account-tie-outline" xmlns="http://www.w3.org/2000/svg" width="14.222" height="16" viewBox="0 0 14.222 16">
  <path id="account-tie-outline-2" data-name="account-tie-outline" d="M14.987,11.676c1.733.587,3.236,1.547,3.236,2.88V19H4V14.556c0-1.333,1.5-2.293,3.244-2.88l.551,1.1.2.444c-1.333.409-2.311,1-2.311,1.333v2.756H9.44l.782-4.507-.836-1.671a15.352,15.352,0,0,1,1.724-.107,15.351,15.351,0,0,1,1.724.107L12,12.8l.782,4.507h3.751V14.556c0-.338-.978-.924-2.311-1.333l.2-.444.56-1.1m-3.876-6.9a1.778,1.778,0,1,0,1.778,1.778,1.783,1.783,0,0,0-1.778-1.778m0,5.333a3.556,3.556,0,1,1,3.556-3.556A3.555,3.555,0,0,1,11.111,10.111Z" transform="translate(-4 -3)" fill="#445c37"/>
</svg>
