<svg id="Component_20_1" data-name="Component 20 – 1" xmlns="http://www.w3.org/2000/svg" width="38.395" height="39.118" viewBox="0 0 38.395 39.118">
  <g id="Group_3574" data-name="Group 3574" transform="translate(11.39)">
    <path id="Path_553" data-name="Path 553" d="M832.458,835.841v31.269l-23.733.238a1.088,1.088,0,0,1-1.1-1.087V831.492a1.088,1.088,0,0,1,1.087-1.087h18.307Z" transform="translate(-806.54 -829.318)" fill="#eff7fc"/>
    <path id="Path_553_-_Outline" data-name="Path 553 - Outline" d="M808.8,829.405h18.758l6.073,6.073v32.8l-24.83.249a2.177,2.177,0,0,1-2.175-2.175V831.58A2.177,2.177,0,0,1,808.8,829.405Zm17.857,2.174H808.8v34.769l22.656-.227V836.379Z" transform="translate(-806.627 -829.405)" fill="#358aca"/>
  </g>
  <path id="Line_1" data-name="Line 1" d="M4.729,6.267-.707.831.831-.707,6.267,4.729Z" transform="translate(31.813 1.026)" fill="#358aca"/>
  <path id="Path_554" data-name="Path 554" d="M831.929,838H823.67v-8.259h2.174v6.084h6.084Z" transform="translate(-793.75 -829.376)" fill="#358aca"/>
  <g id="Group_3575" data-name="Group 3575" transform="translate(17.191 11.338)">
    <path id="Line_2" data-name="Line 2" d="M14.684,1.175H0V-1H14.684Z" transform="translate(0 1)" fill="#358aca"/>
    <path id="Line_3" data-name="Line 3" d="M14.684,1.175H0V-1H14.684Z" transform="translate(0 4.57)" fill="#358aca"/>
    <path id="Line_4" data-name="Line 4" d="M6.884,1.175H0V-1H6.884Z" transform="translate(0.061 8.139)" fill="#358aca"/>
  </g>
  <g id="Group_3576" data-name="Group 3576" transform="translate(0 10.682)">
    <path id="Path_555" data-name="Path 555" d="M804.445,854.128,799.882,841.4l2.542.005-.346-2.176-2.193,0h0a2.174,2.174,0,0,0-2.048,2.908l8.448,23.552Z" transform="translate(-797.707 -839.23)" fill="#b4cd7c"/>
  </g>
  <path id="Path_556" data-name="Path 556" d="M806.637,852.253l-2.492-15.68,2.492.006V834.4l-2.487-.006h-.007A2.176,2.176,0,0,0,802,836.914l4.64,29.2Z" transform="translate(-796.799 -828.969)" fill="#b4cd7c"/>
</svg>
