<svg id="Component_24_1" data-name="Component 24 – 1" xmlns="http://www.w3.org/2000/svg" width="252.008" height="56.073" viewBox="0 0 252.008 56.073">
  <g id="Component_25_1" data-name="Component 25 – 1" transform="translate(120 0.004)">
    <path id="Path_568" data-name="Path 568" d="M14.174-6.775H5.534V-.3h10.1V2.616H1.879V-18.42H15.532v2.947h-10v5.808h8.64Zm7.354-6.241.1,1.806a5.621,5.621,0,0,1,4.551-2.095q4.883,0,4.97,5.591V2.616H27.639V-7.512A3.219,3.219,0,0,0,27-9.715a2.7,2.7,0,0,0-2.1-.715A3.383,3.383,0,0,0,21.73-8.508V2.616H18.219V-13.016Zm17.6-3.8v3.8h2.759v2.6H39.125v8.726A1.922,1.922,0,0,0,39.479-.4a1.641,1.641,0,0,0,1.264.4,5.408,5.408,0,0,0,1.228-.144V2.573a8.647,8.647,0,0,1-2.312.332q-4.045,0-4.045-4.464v-8.856H33.042v-2.6h2.572v-3.8ZM51.449,2.905A7.263,7.263,0,0,1,46.038.8a7.626,7.626,0,0,1-2.073-5.6v-.433a9.38,9.38,0,0,1,.9-4.183A6.873,6.873,0,0,1,47.4-12.279a6.7,6.7,0,0,1,3.641-1.026,6.136,6.136,0,0,1,4.934,2.037A8.614,8.614,0,0,1,57.719-5.5v1.416H47.5A4.7,4.7,0,0,0,48.8-1.025,3.882,3.882,0,0,0,51.651.1a4.754,4.754,0,0,0,3.93-1.95L57.473-.042a6.32,6.32,0,0,1-2.507,2.174A7.848,7.848,0,0,1,51.449,2.905ZM51.03-10.488A2.956,2.956,0,0,0,48.7-9.476a5.242,5.242,0,0,0-1.134,2.817h6.689v-.26a4.267,4.267,0,0,0-.939-2.666A2.934,2.934,0,0,0,51.03-10.488Zm17.6.679a8.688,8.688,0,0,0-1.43-.116,3.22,3.22,0,0,0-3.251,1.849V2.616H60.435V-13.016h3.352l.087,1.748A3.956,3.956,0,0,1,67.4-13.305a3.287,3.287,0,0,1,1.242.2ZM84.534-5.041A9.308,9.308,0,0,1,82.887.745a5.275,5.275,0,0,1-4.421,2.16,5.31,5.31,0,0,1-4.118-1.69V8.626H70.837V-13.016h3.236l.144,1.589a5.157,5.157,0,0,1,4.2-1.878,5.329,5.329,0,0,1,4.486,2.131,9.556,9.556,0,0,1,1.625,5.916Zm-3.5-.3a6.52,6.52,0,0,0-.932-3.713A3.029,3.029,0,0,0,77.44-10.43a3.231,3.231,0,0,0-3.092,1.777v6.935A3.26,3.26,0,0,0,77.469.1a3.026,3.026,0,0,0,2.622-1.351A7.177,7.177,0,0,0,81.037-5.344Zm14.65-4.464a8.688,8.688,0,0,0-1.43-.116,3.22,3.22,0,0,0-3.251,1.849V2.616H87.5V-13.016h3.352l.087,1.748a3.956,3.956,0,0,1,3.525-2.037,3.287,3.287,0,0,1,1.243.2ZM101.64,2.616H98.129V-13.016h3.511ZM97.912-17.076a1.863,1.863,0,0,1,.513-1.344,1.937,1.937,0,0,1,1.466-.535,1.962,1.962,0,0,1,1.474.535,1.849,1.849,0,0,1,.52,1.344,1.806,1.806,0,0,1-.52,1.322,1.977,1.977,0,0,1-1.474.527,1.952,1.952,0,0,1-1.466-.527A1.82,1.82,0,0,1,97.912-17.076ZM114.223-1.631a1.592,1.592,0,0,0-.773-1.43,8.221,8.221,0,0,0-2.564-.867,13.183,13.183,0,0,1-2.991-.954,3.991,3.991,0,0,1-2.629-3.684,4.161,4.161,0,0,1,1.7-3.381,6.74,6.74,0,0,1,4.334-1.358,7.013,7.013,0,0,1,4.529,1.387,4.4,4.4,0,0,1,1.726,3.6H114.05A2.164,2.164,0,0,0,113.3-10a2.879,2.879,0,0,0-1.994-.672,3.111,3.111,0,0,0-1.885.535,1.685,1.685,0,0,0-.73,1.43,1.423,1.423,0,0,0,.679,1.257,9.338,9.338,0,0,0,2.745.9,12.994,12.994,0,0,1,3.243,1.084,4.593,4.593,0,0,1,1.748,1.51,3.85,3.85,0,0,1,.571,2.138A4.073,4.073,0,0,1,115.928,1.6a7.454,7.454,0,0,1-4.58,1.308,8.083,8.083,0,0,1-3.424-.693A5.635,5.635,0,0,1,105.584.3a4.514,4.514,0,0,1-.838-2.615h3.41A2.474,2.474,0,0,0,109.095-.4a3.649,3.649,0,0,0,2.3.672A3.55,3.55,0,0,0,113.5-.252,1.632,1.632,0,0,0,114.223-1.631Zm13.393,4.537A7.263,7.263,0,0,1,122.206.8a7.626,7.626,0,0,1-2.073-5.6v-.433a9.38,9.38,0,0,1,.9-4.183,6.873,6.873,0,0,1,2.536-2.868,6.7,6.7,0,0,1,3.641-1.026,6.136,6.136,0,0,1,4.934,2.037A8.614,8.614,0,0,1,133.887-5.5v1.416H123.672a4.694,4.694,0,0,0,1.293,3.063A3.882,3.882,0,0,0,127.819.1a4.754,4.754,0,0,0,3.93-1.95l1.893,1.806a6.321,6.321,0,0,1-2.507,2.174A7.848,7.848,0,0,1,127.616,2.905ZM127.2-10.488a2.956,2.956,0,0,0-2.333,1.011,5.242,5.242,0,0,0-1.134,2.817h6.689v-.26a4.267,4.267,0,0,0-.939-2.666A2.934,2.934,0,0,0,127.2-10.488ZM5.534,28.955v7.8H1.879V15.721H9.926a8.138,8.138,0,0,1,5.6,1.837,6.176,6.176,0,0,1,2.073,4.86,5.971,5.971,0,0,1-2.03,4.816,8.531,8.531,0,0,1-5.685,1.721Zm0-2.947H9.926a4.326,4.326,0,0,0,2.976-.917,3.372,3.372,0,0,0,1.026-2.651,3.638,3.638,0,0,0-1.04-2.723,4.009,4.009,0,0,0-2.861-1.047H5.534ZM24.186,36.757H20.675V14.565h3.511Zm13.162,0a5.418,5.418,0,0,1-.4-1.459A5.906,5.906,0,0,1,29,35.7a4.3,4.3,0,0,1-1.488-3.323,4.439,4.439,0,0,1,1.857-3.836,9,9,0,0,1,5.309-1.336h2.153V26.181a2.738,2.738,0,0,0-.679-1.943,2.692,2.692,0,0,0-2.066-.73,3.092,3.092,0,0,0-1.965.6,1.856,1.856,0,0,0-.766,1.524H27.841a3.9,3.9,0,0,1,.852-2.406,5.679,5.679,0,0,1,2.319-1.755,8.145,8.145,0,0,1,3.272-.636,6.559,6.559,0,0,1,4.378,1.38,4.92,4.92,0,0,1,1.676,3.879v7.05a7.99,7.99,0,0,0,.592,3.366v.246ZM33.49,34.229a3.994,3.994,0,0,0,1.958-.506,3.378,3.378,0,0,0,1.38-1.358V29.418H34.935A5.175,5.175,0,0,0,32,30.1a2.2,2.2,0,0,0-.982,1.922,2.052,2.052,0,0,0,.672,1.611A2.6,2.6,0,0,0,33.49,34.229Zm14.924-16.9v3.8h2.759v2.6H48.415v8.726a1.922,1.922,0,0,0,.354,1.293,1.641,1.641,0,0,0,1.264.4A5.408,5.408,0,0,0,51.261,34v2.716a8.646,8.646,0,0,1-2.312.332q-4.045,0-4.045-4.464V23.725H42.332v-2.6H44.9v-3.8Zm6.675,19.432V23.725H52.706v-2.6h2.384v-1.43a5.369,5.369,0,0,1,1.445-4.016,5.534,5.534,0,0,1,4.045-1.416,8.114,8.114,0,0,1,1.965.26l-.087,2.745a6.915,6.915,0,0,0-1.344-.116A2.254,2.254,0,0,0,58.6,19.738v1.387h3.178v2.6H58.6V36.757Zm8.6-7.961a9.218,9.218,0,0,1,.91-4.139,6.648,6.648,0,0,1,2.557-2.832,7.205,7.205,0,0,1,3.785-.99,6.828,6.828,0,0,1,5.136,2.037,8.012,8.012,0,0,1,2.131,5.4l.014.824a9.3,9.3,0,0,1-.889,4.132,6.568,6.568,0,0,1-2.543,2.817,7.258,7.258,0,0,1-3.821,1,6.781,6.781,0,0,1-5.3-2.2,8.438,8.438,0,0,1-1.987-5.873Zm3.511.3a6.3,6.3,0,0,0,1,3.778,3.241,3.241,0,0,0,2.774,1.365,3.205,3.205,0,0,0,2.767-1.387,6.957,6.957,0,0,0,.99-4.06,6.218,6.218,0,0,0-1.019-3.756,3.433,3.433,0,0,0-5.5-.022A6.826,6.826,0,0,0,67.2,29.1Zm22.177-4.768a8.687,8.687,0,0,0-1.43-.116,3.22,3.22,0,0,0-3.251,1.849V36.757H81.182V21.125h3.352l.087,1.748a3.956,3.956,0,0,1,3.525-2.037,3.287,3.287,0,0,1,1.243.2Zm5.519-3.207.1,1.633A5.625,5.625,0,0,1,99.5,20.836a4.321,4.321,0,0,1,4.291,2.4,5.544,5.544,0,0,1,4.8-2.4,4.874,4.874,0,0,1,3.85,1.43,6.3,6.3,0,0,1,1.293,4.219V36.757h-3.511V26.586a3.109,3.109,0,0,0-.65-2.182,2.846,2.846,0,0,0-2.153-.693,2.923,2.923,0,0,0-1.958.643,3.391,3.391,0,0,0-1.062,1.683l.014,10.72H100.9V26.47a2.5,2.5,0,0,0-2.817-2.759,3.091,3.091,0,0,0-2.991,1.719V36.757H91.584V21.125Z" transform="translate(-1.879 18.954)" fill="#061d30"/>
  </g>
  <g id="Component_17_1" data-name="Component 17 – 1">
    <rect id="Rectangle_2621" data-name="Rectangle 2621" width="9.805" height="56" transform="translate(53)" fill="#0c78bf"/>
    <g id="Group_3586" data-name="Group 3586" transform="translate(-88 -81)">
      <path id="Path_525" data-name="Path 525" d="M288.626,302.056v-10.11a17.882,17.882,0,1,0,.016-35.764l-8.391.131-.156-10.108,8.468-.131a27.991,27.991,0,1,1,.063,55.982Z" transform="translate(-181.985 -165.074)" fill="#0c78bf"/>
      <rect id="Rectangle_2622" data-name="Rectangle 2622" width="10.11" height="55.927" transform="translate(88 81.073)" fill="#0c78bf"/>
    </g>
    <g id="Group_3585" data-name="Group 3585" transform="translate(-84.619 -81.325)">
      <g id="Group_766" data-name="Group 766" transform="translate(153.747 81.325)">
        <g id="Group_765" data-name="Group 765" transform="translate(0)">
          <path id="Path_526" data-name="Path 526" d="M344.882,260.43a23.2,23.2,0,0,0-26.832-.112l-6.129-7.72a32.993,32.993,0,0,1,39.179.183Z" transform="translate(-311.921 -246.243)" fill="#0c78bf"/>
          <path id="Path_527" data-name="Path 527" d="M331.4,281.676a31.314,31.314,0,0,1-19.476-6.356l6.129-7.72a23.194,23.194,0,0,0,26.832-.11l6.218,7.647A31.183,31.183,0,0,1,331.4,281.676Z" transform="translate(-311.921 -225.603)" fill="#0c78bf"/>
        </g>
      </g>
      <g id="Group_767" data-name="Group 767" transform="translate(159.052 97.332)">
        <path id="Path_528" data-name="Path 528" d="M330.353,257.915a10.737,10.737,0,0,0-1.212-3.553,16.19,16.19,0,0,1-1.37,4.172" transform="translate(-301.829 -254.362)" fill="#85bc4f"/>
        <path id="Path_529" data-name="Path 529" d="M329.788,266.439c3.385-2.653,5.023-6.494,4.385-10.177l-2.719.653c-1.189,2.141-3.308,4.268-7.58,6.565" transform="translate(-305.614 -252.516)" fill="#aece71"/>
        <path id="Path_530" data-name="Path 530" d="M323.725,267.972c4.142-1.591,8.207-3.355,10-4.994l-5.889-2.969c-.834.449-1.749.9-2.752,1.366a52.36,52.36,0,0,0-5.526,2.963" transform="translate(-309.806 -248.876)" fill="#7bb94f"/>
        <path id="Path_531" data-name="Path 531" d="M315.148,271.311c1.97-1.841,7.21-3.326,12.58-5.408l-4.1-3.612c-7.663,4.353-8.475,9.02-8.475,9.02" transform="translate(-314.091 -246.658)" fill="#50a734"/>
        <path id="Path_532" data-name="Path 532" d="M326.213,261.842a13.338,13.338,0,0,0,4.54-7.48,25.745,25.745,0,0,1-4.881,2.4" transform="translate(-303.673 -254.362)" fill="#aece71"/>
        <path id="Path_533" data-name="Path 533" d="M318.668,259.942c-6.646,5.339-3.123,13.56-3.123,13.56s.327-3.436,4.306-6.743" transform="translate(-314.612 -248.941)" fill="#50a734"/>
        <path id="Path_534" data-name="Path 534" d="M321.6,265.8c.572-.288.824-.45,1.457-.739a35.821,35.821,0,0,0,7.316-4.294l-.335-5.132c-2.9,1.293-5.873,2.271-8.712,3.572" transform="translate(-308.091 -253.126)" fill="#85bc4f"/>
        <path id="Path_535" data-name="Path 535" d="M317.986,268.892a39.193,39.193,0,0,1,7.709-4.8l-.312-6.581c-1.443.6-3.336,1.548-4.223,1.977a19.06,19.06,0,0,0-4.335,2.628" transform="translate(-312.462 -251.301)" fill="#5cae3e"/>
      </g>
    </g>
  </g>
</svg>
