<svg xmlns="http://www.w3.org/2000/svg" width="152.176" height="123.895" viewBox="0 0 152.176 123.895">
  <g id="Component_85_1" data-name="Component 85 – 1" transform="translate(0.501 0.78)">
    <path id="Intersection_5" data-name="Intersection 5" d="M5443.443,122c1.071-4.247,3.724-8.637,9.4-11.992,11.1-7.076,31.7-12.776,39.957-19.081-.569-1.385-6.848-17.64,8.239-26.563,11.145-7.1,31.869-12.824,40.057-19.16,10.482,22.778-10.812,31.521-30.857,38.305-14.2,5.3-16.835,7.026-17.3,7.416,7.2,15.737-.785,24.761-13.027,31.074ZM5520.6,92.031c9.079-5.789,25.969-10.449,32.64-15.612,8.542,18.564-8.811,25.688-25.145,31.218-13.563,5.061-14.178,6.12-14.178,6.12S5507.745,99.634,5520.6,92.031Zm-69.609-20.239c9.08-5.791,25.969-10.45,32.642-15.616,8.541,18.565-8.812,25.688-25.146,31.218-13.563,5.06-14.178,6.122-14.178,6.122S5438.136,79.391,5450.987,71.792Zm117.627,5.233c5.181-3.3,14.823-5.966,18.631-8.912,4.876,10.595-5.028,14.664-14.355,17.819-7.74,2.889-8.093,3.495-8.093,3.495S5561.279,81.363,5568.614,77.025Zm-8.687-25.478c9.08-5.789,25.969-10.449,32.645-15.614A28.029,28.029,0,0,1,5594,39.686V49.8c-3.192,8.823-15.134,13.478-26.578,17.353-13.562,5.058-14.178,6.122-14.178,6.122S5547.076,59.146,5559.927,51.547Zm-105.662-1.49c5.186-3.306,14.824-5.964,18.632-8.912,4.876,10.6-5.029,14.663-14.352,17.819-7.741,2.887-8.093,3.495-8.093,3.495S5446.93,54.395,5454.265,50.057ZM5490.317,31.3c9.081-5.789,25.97-10.449,32.646-15.613,8.541,18.562-8.814,25.688-25.151,31.219-13.561,5.058-14.176,6.122-14.176,6.122S5477.467,38.9,5490.317,31.3Zm58.932-12.759c11.143-7.1,31.867-12.824,40.056-19.158,10.48,22.779-10.814,31.52-30.859,38.307-16.641,6.209-17.4,7.513-17.4,7.513S5533.481,27.872,5549.249,18.544Z" transform="translate(-5442.825 0.614)" fill="#496073" stroke="rgba(0,0,0,0)" stroke-width="1" opacity="0.05"/>
  </g>
</svg>
