<svg id="Icon_awesome-facebook-square" data-name="Icon awesome-facebook-square" xmlns="http://www.w3.org/2000/svg" width="16" height="16" viewBox="0 0 16 16">
  <path id="Icon_awesome-facebook-square-2" data-name="Icon awesome-facebook-square" d="M14.286,2.25H1.714A1.714,1.714,0,0,0,0,3.964V16.536A1.714,1.714,0,0,0,1.714,18.25h4.9V12.81H4.366V10.25h2.25V8.3A3.125,3.125,0,0,1,9.961,4.853a13.631,13.631,0,0,1,1.983.173V7.2H10.828A1.28,1.28,0,0,0,9.384,8.587V10.25H11.84l-.393,2.56H9.384v5.44h4.9A1.714,1.714,0,0,0,16,16.536V3.964A1.714,1.714,0,0,0,14.286,2.25Z" transform="translate(0 -2.25)" fill="#3787c9"/>
</svg>
