<svg id="Component_54_1" data-name="Component 54 – 1" xmlns="http://www.w3.org/2000/svg" width="250.628" height="218.051" viewBox="0 0 250.628 218.051">
  <path id="Path_552" data-name="Path 552" d="M447.89,128.524l-68.016-25.053L312.52,128.186c-8.6,4.166-16.141,6.661-16.141,14.876V183.97a157.6,157.6,0,0,0,22.188,81.415c12.564,20.915,32.019,42.45,61.969,56.137,27.531-9.173,48.082-33.626,60.646-54.541a157.6,157.6,0,0,0,22.187-81.415V148.78C463.369,137.063,457.316,131.342,447.89,128.524Z" transform="translate(-255.155 -103.471)" fill="#e8505b"/>
  <path id="Path_553" data-name="Path 553" d="M447.89,128.524l-68.016-25.053L312.52,128.186c-8.6,4.166-16.141,6.661-16.141,14.876V183.97a157.6,157.6,0,0,0,22.188,81.415c12.564,20.915,32.019,42.45,61.969,56.137,27.531-9.173,48.082-33.626,60.646-54.541a157.6,157.6,0,0,0,22.187-81.415V148.78C463.369,137.063,457.316,131.342,447.89,128.524Z" transform="translate(-255.155 -103.471)" fill="#e4e4e4"/>
  <path id="Path_554" data-name="Path 554" d="M421.409,232.082h-12.5V164.058a29.037,29.037,0,1,0-58.074,0v68.024h-12.5V164.058a41.535,41.535,0,1,1,83.069,0Z" transform="translate(-255.155 -103.471)" fill="#e8505b"/>
  <path id="Path_555" data-name="Path 555" d="M421.409,232.082h-12.5V164.058a29.037,29.037,0,1,0-58.074,0v68.024h-12.5V164.058a41.535,41.535,0,1,1,83.069,0Z" transform="translate(-255.155 -103.471)" fill="#3b3b3b"/>
  <rect id="Rectangle_2621" data-name="Rectangle 2621" width="111.948" height="71.822" rx="5.811" transform="translate(68.746 98.352)" fill="#8f8f8f"/>
  <path id="Path_556" data-name="Path 556" d="M389.231,228.377a9.357,9.357,0,1,0-11.909,8.96v13.99h5.105v-13.99A9.329,9.329,0,0,0,389.231,228.377Z" transform="translate(-255.155 -103.471)"/>
  <path id="Path_557" data-name="Path 557" d="M329.87,266.834c-.257,0-.465-11.978-.465-26.749s.208-26.753.465-26.753.465,11.975.465,26.753S330.127,266.834,329.87,266.834Z" transform="translate(-255.155 -103.471)" fill="#fafafa"/>
  <path id="Path_558" data-name="Path 558" d="M372.547,240.372c-.031.046-.439-.147-1.1-.623a11.448,11.448,0,0,1-2.412-2.458,13.113,13.113,0,0,1,4.66-19.677,11.4,11.4,0,0,1,3.258-1.115,2.885,2.885,0,0,1,1.259-.065,29.266,29.266,0,0,0-4.2,1.757,12.97,12.97,0,0,0-4.434,18.726A29.15,29.15,0,0,0,372.547,240.372Z" transform="translate(-255.155 -103.471)" fill="#fafafa"/>
  <path id="Path_559" data-name="Path 559" d="M463.959,305.658s.268-.375.809-1.087l.456-.6c.153-.231.292-.5.459-.79a12.266,12.266,0,0,0,1.028-2.055c.16-.406.351-.827.513-1.286q.2-.705.409-1.483a10.5,10.5,0,0,0,.342-1.651,17.548,17.548,0,0,0,.252-1.82,34.363,34.363,0,0,0-.4-8.771c-1.013-6.561-3.8-14.288-8.055-22.686a177.214,177.214,0,0,0-17.3-26.9,275.373,275.373,0,0,0-25.8-28.977,315.646,315.646,0,0,0-33.867-28.908c-6.323-4.646-12.991-9.153-20.021-13.4a193.314,193.314,0,0,0-22.237-11.66,103.91,103.91,0,0,0-24.743-7.756,43.77,43.77,0,0,0-13.194-.324,24.738,24.738,0,0,0-6.374,1.845,15.887,15.887,0,0,0-8.638,9.669,24.718,24.718,0,0,0-1.113,6.544,43.606,43.606,0,0,0,1.818,13.076,103.855,103.855,0,0,0,10.52,23.708,193.394,193.394,0,0,0,14.117,20.771c5.018,6.5,10.256,12.615,15.592,18.369a315.516,315.516,0,0,0,32.578,30.361,275.413,275.413,0,0,0,31.725,22.332,177.139,177.139,0,0,0,28.7,14.125c8.828,3.276,16.821,5.16,23.454,5.42a34.388,34.388,0,0,0,8.759-.6,17.519,17.519,0,0,0,1.778-.458,10.371,10.371,0,0,0,1.6-.528l1.427-.574c.437-.214.834-.452,1.218-.657a12.31,12.31,0,0,0,1.925-1.255c.265-.2.52-.367.732-.546l.543-.52c.646-.619.988-.928.988-.928s-.315.333-.952.966l-.536.533c-.209.183-.464.355-.727.558A12.17,12.17,0,0,1,459.823,309c-.384.21-.782.453-1.22.672l-1.43.59a10.458,10.458,0,0,1-1.608.542,17.465,17.465,0,0,1-1.786.473,34.358,34.358,0,0,1-8.8.651c-6.664-.23-14.688-2.092-23.546-5.35a176.606,176.606,0,0,1-28.785-14.082,274.5,274.5,0,0,1-31.808-22.312,315.035,315.035,0,0,1-32.658-30.37c-5.349-5.759-10.6-11.879-15.634-18.393A193.371,193.371,0,0,1,298.383,200.6,104.216,104.216,0,0,1,287.8,176.776a44.112,44.112,0,0,1-1.839-13.234,25.219,25.219,0,0,1,1.139-6.691,16.409,16.409,0,0,1,8.911-9.974,25.292,25.292,0,0,1,6.517-1.889,44.234,44.234,0,0,1,13.353.328,104.3,104.3,0,0,1,24.867,7.8,193.533,193.533,0,0,1,22.289,11.7c7.042,4.259,13.719,8.779,20.048,13.438a314.894,314.894,0,0,1,33.886,28.986A274.436,274.436,0,0,1,442.762,236.3a176.529,176.529,0,0,1,17.268,27c4.245,8.43,7.008,16.191,8,22.786a34.354,34.354,0,0,1,.355,8.819,17.339,17.339,0,0,1-.266,1.828,10.486,10.486,0,0,1-.356,1.66l-.423,1.488c-.168.46-.364.883-.529,1.289a12.1,12.1,0,0,1-1.056,2.055c-.172.285-.314.557-.472.786l-.468.594C464.254,305.307,463.959,305.658,463.959,305.658Z" transform="translate(-255.155 -103.471)"/>
  <path id="Path_560" data-name="Path 560" d="M495.971,228.387s-.05-.458-.12-1.35c-.018-.224-.037-.474-.059-.75-.039-.275-.118-.571-.183-.9a12.2,12.2,0,0,0-.6-2.218c-.15-.409-.288-.851-.473-1.3q-.324-.655-.682-1.379a10.329,10.329,0,0,0-.844-1.46,17.52,17.52,0,0,0-1.023-1.526,34.34,34.34,0,0,0-6.139-6.278c-5.123-4.222-12.343-8.136-21.112-11.568a177.167,177.167,0,0,0-30.819-8.56,275.264,275.264,0,0,0-38.54-4.452,315.486,315.486,0,0,0-44.517.971c-7.81.741-15.787,1.817-23.859,3.328a193.321,193.321,0,0,0-24.356,6.1,103.917,103.917,0,0,0-23.627,10.682,43.75,43.75,0,0,0-10.062,8.541,24.7,24.7,0,0,0-3.528,5.62,15.884,15.884,0,0,0-.01,12.965,24.717,24.717,0,0,0,3.525,5.625A43.638,43.638,0,0,0,279,249.032a103.868,103.868,0,0,0,23.632,10.688,193.232,193.232,0,0,0,24.361,6.1c8.074,1.512,16.052,2.588,23.863,3.329a315.562,315.562,0,0,0,44.522.971,275.273,275.273,0,0,0,38.541-4.453,177.149,177.149,0,0,0,30.818-8.561c8.768-3.432,15.987-7.346,21.11-11.568a34.4,34.4,0,0,0,6.138-6.278,17.731,17.731,0,0,0,1.022-1.525,10.542,10.542,0,0,0,.844-1.46l.682-1.379c.184-.45.322-.892.472-1.3a12.217,12.217,0,0,0,.6-2.217c.065-.325.144-.621.183-.9.022-.276.041-.526.059-.75.07-.892.12-1.35.12-1.35s-.014.458-.067,1.354q-.021.338-.046.755c-.035.276-.11.574-.171.9a12.124,12.124,0,0,1-.579,2.237c-.147.412-.283.859-.464,1.313l-.675,1.392a10.473,10.473,0,0,1-.838,1.476,17.624,17.624,0,0,1-1.018,1.541,34.366,34.366,0,0,1-6.135,6.344c-5.126,4.264-12.353,8.216-21.132,11.682a176.539,176.539,0,0,1-30.855,8.652,274.549,274.549,0,0,1-38.589,4.523,315.031,315.031,0,0,1-44.588-.925c-7.825-.736-15.818-1.808-23.909-3.318a193.357,193.357,0,0,1-24.428-6.108,104.222,104.222,0,0,1-23.754-10.738,44.159,44.159,0,0,1-10.182-8.651,25.264,25.264,0,0,1-3.6-5.752,16.4,16.4,0,0,1,.01-13.375,25.257,25.257,0,0,1,3.606-5.747,44.245,44.245,0,0,1,10.183-8.644,104.314,104.314,0,0,1,23.749-10.732,193.446,193.446,0,0,1,24.423-6.106c8.09-1.51,16.081-2.581,23.9-3.317a314.956,314.956,0,0,1,44.583-.925,274.574,274.574,0,0,1,38.588,4.522,176.665,176.665,0,0,1,30.856,8.651c8.78,3.465,16.008,7.417,21.135,11.682a34.334,34.334,0,0,1,6.135,6.344,17.423,17.423,0,0,1,1.019,1.542,10.571,10.571,0,0,1,.839,1.475l.675,1.393c.181.454.316.9.463,1.313a12.154,12.154,0,0,1,.58,2.237c.061.327.136.625.171.9q.025.417.046.754C495.957,227.929,495.971,228.387,495.971,228.387Z" transform="translate(-255.155 -103.471)"/>
  <path id="Path_561" data-name="Path 561" d="M453.557,132.2s-.393-.242-1.141-.732l-.629-.414c-.24-.137-.523-.256-.819-.4a12.178,12.178,0,0,0-2.122-.884c-.415-.132-.849-.294-1.317-.424l-1.508-.3a10.457,10.457,0,0,0-1.671-.228,17.471,17.471,0,0,0-1.832-.126,34.352,34.352,0,0,0-8.724,1.005c-6.475,1.463-13.992,4.77-22.077,9.6A177.157,177.157,0,0,0,386.069,158.4a275.363,275.363,0,0,0-27.131,27.732,315.427,315.427,0,0,0-26.507,35.778c-4.2,6.627-8.236,13.59-11.987,20.9a193.194,193.194,0,0,0-10.1,22.988,103.909,103.909,0,0,0-6.033,25.218A43.749,43.749,0,0,0,304.9,304.2a24.744,24.744,0,0,0,2.28,6.232,15.883,15.883,0,0,0,10.241,7.951,24.766,24.766,0,0,0,6.605.66,43.645,43.645,0,0,0,12.92-2.715A103.8,103.8,0,0,0,359.868,304.2a193.35,193.35,0,0,0,19.749-15.514c6.142-5.455,11.88-11.1,17.252-16.82a315.626,315.626,0,0,0,28.045-34.592,275.427,275.427,0,0,0,20.094-33.189,177.219,177.219,0,0,0,12.115-29.6c2.66-9.032,3.989-17.136,3.791-23.771a34.4,34.4,0,0,0-1.2-8.7,17.694,17.694,0,0,0-.579-1.742,10.481,10.481,0,0,0-.637-1.562l-.672-1.384c-.243-.421-.507-.8-.739-1.17a12.276,12.276,0,0,0-1.384-1.834c-.217-.25-.4-.494-.6-.692l-.557-.506c-.662-.6-.993-.922-.993-.922s.353.291,1.029.883l.568.5c.2.2.387.438.607.687a12.172,12.172,0,0,1,1.413,1.828c.236.369.5.749.754,1.171l.687,1.386a10.5,10.5,0,0,1,.652,1.567,17.826,17.826,0,0,1,.6,1.749,34.355,34.355,0,0,1,1.255,8.735c.229,6.664-1.075,14.8-3.715,23.858a176.553,176.553,0,0,1-12.066,29.687,274.583,274.583,0,0,1-20.068,33.269,314.873,314.873,0,0,1-28.049,34.673c-5.376,5.733-11.12,11.394-17.271,16.864a193.582,193.582,0,0,1-19.794,15.564,104.3,104.3,0,0,1-23.04,12.2,44.14,44.14,0,0,1-13.075,2.745,25.218,25.218,0,0,1-6.754-.676,16.4,16.4,0,0,1-10.564-8.2,25.221,25.221,0,0,1-2.333-6.371,44.2,44.2,0,0,1-.593-13.344,104.285,104.285,0,0,1,6.069-25.345A193.316,193.316,0,0,1,320,242.579c3.763-7.318,7.812-14.291,12.024-20.926a314.84,314.84,0,0,1,26.584-35.8,274.367,274.367,0,0,1,27.216-27.727,176.483,176.483,0,0,1,25.742-19.086c8.118-4.816,15.669-8.107,22.181-9.547a34.34,34.34,0,0,1,8.773-.962,17.593,17.593,0,0,1,1.843.139,10.451,10.451,0,0,1,1.68.242l1.514.319c.47.135.906.3,1.322.439a12.124,12.124,0,0,1,2.123.912c.3.152.577.275.817.417l.624.426C453.186,131.931,453.557,132.2,453.557,132.2Z" transform="translate(-255.155 -103.471)"/>
  <circle id="Ellipse_135" data-name="Ellipse 135" cx="4.312" cy="4.312" r="4.312" transform="translate(0 171.568)"/>
  <path id="Path_562" data-name="Path 562" d="M505.783,142.7a4.311,4.311,0,1,1-4.311-4.312A4.311,4.311,0,0,1,505.783,142.7Z" transform="translate(-255.155 -103.471)"/>
  <path id="Path_563" data-name="Path 563" d="M289.743,290.479a1.1,1.1,0,1,1-1.1-1.1A1.1,1.1,0,0,1,289.743,290.479Z" transform="translate(-255.155 -103.471)"/>
  <path id="Path_564" data-name="Path 564" d="M313.13,169.66a1.1,1.1,0,1,1-1.1-1.1A1.1,1.1,0,0,1,313.13,169.66Z" transform="translate(-255.155 -103.471)"/>
  <path id="Path_565" data-name="Path 565" d="M484.124,228.387a1.1,1.1,0,1,1-1.1-1.1A1.1,1.1,0,0,1,484.124,228.387Z" transform="translate(-255.155 -103.471)"/>
  <path id="Path_566" data-name="Path 566" d="M499.352,177.3a1.1,1.1,0,1,1-1.1-1.1A1.1,1.1,0,0,1,499.352,177.3Z" transform="translate(-255.155 -103.471)"/>
</svg>
