<svg id="user" xmlns="http://www.w3.org/2000/svg" xmlns:xlink="http://www.w3.org/1999/xlink" width="32" height="32" viewBox="0 0 32 32">
  <defs>
    <clipPath id="clip-path">
      <circle id="Ellipse_127" data-name="Ellipse 127" cx="16" cy="16" r="16" transform="translate(0 0)"/>
    </clipPath>
  </defs>
  <g id="Group_45" data-name="Group 45" transform="translate(-1168 -80)" opacity="0.15">
    <g id="Group_46" data-name="Group 46">
      <rect id="Rectangle_2112" data-name="Rectangle 2112" width="32" height="32" rx="16" transform="translate(1168 80)"/>
    </g>
  </g>
  <g id="Mask_Group_1" data-name="Mask Group 1" transform="translate(0)" clip-path="url(#clip-path)">
    <g id="Group_50" data-name="Group 50" transform="translate(4.707 6.526)">
      <path id="Path_426" data-name="Path 426" d="M53.5,55,42.742,62.967l.114,1.887v2.4L39,70.148l3.856,5.068h8.436l-.279-7.476a2.989,2.989,0,0,0,1.8-.837,3.186,3.186,0,0,0,.962-2.293V56.325A3.681,3.681,0,0,0,53.5,55Z" transform="translate(-35.848 -49.742)" fill="#fff"/>
      <path id="Path_427" data-name="Path 427" d="M20.475,159h9.019s6.787,2.625,6.787,5.716H16.39c0-1.821,2.091-4.159,3.292-5.189A2.251,2.251,0,0,1,20.475,159Z" transform="translate(-16.39 -139.242)" fill="#106aa5"/>
      <path id="Path_429" data-name="Path 429" d="M66.382,62.5v3a3.139,3.139,0,0,1-1.255,2.851s-1.033-3.837-2.649-1.952c-.837.976.558,2.616.558,2.788,0,1.952-2.091,2.928-3.269,2.928H56.505s-.022-.685-.022-1.055v-.073a7.35,7.35,0,0,1-1.623-1.272,16.01,16.01,0,0,0,1.623-.078c2.231-.223.529-2.2,1.389-2.907l1.12-2.46c.558-.464,2.813,2.817,3.16,2.46l.047-.047Z" transform="translate(-49.496 -56.196)"/>
      <path id="Path_430" data-name="Path 430" d="M118.622,19.685a2.155,2.155,0,0,1-.633,1.534l-.976.976-.738.738a7.25,7.25,0,0,0-.646-1.255l-.011-.018a7.374,7.374,0,0,0-1.265-1.479c-.131-.12-.268-.234-.409-.343a7.425,7.425,0,0,0-1.865-1.058c.252-.178.5-.344.745-.494a8.428,8.428,0,0,1,.848-.456s2.579-1.421,4.316.328A2.155,2.155,0,0,1,118.622,19.685Z" transform="translate(-98.739 -17.285)" fill="#496073" opacity="0.4"/>
      <path id="Path_428" data-name="Path 428" d="M54.272,29.141l-4.839,4.839-.047.047-1,1-.293.294h-.007a7.72,7.72,0,0,1-4.371,1.614,16.009,16.009,0,0,1-1.623.078A7.385,7.385,0,0,1,47.411,24.5a7.516,7.516,0,0,1,.976.064,7.356,7.356,0,0,1,3.555,1.488c.139.109.279.223.409.343a7.374,7.374,0,0,1,1.265,1.479l.011.018A7.25,7.25,0,0,1,54.272,29.141Z" transform="translate(-36.73 -23.494)" fill="#496073"/>
    </g>
  </g>
</svg>
