<svg xmlns="http://www.w3.org/2000/svg" xmlns:xlink="http://www.w3.org/1999/xlink" width="64" height="64" viewBox="0 0 64 64">
  <defs>
    <clipPath id="clip-path">
      <circle id="Ellipse_139" data-name="Ellipse 139" cx="32" cy="32" r="32" transform="translate(792 560)" fill="#fff" stroke="#707070" stroke-width="1"/>
    </clipPath>
    <clipPath id="clip-path-2">
      <rect id="Rectangle_2719" data-name="Rectangle 2719" width="63.853" height="64.049" fill="none"/>
    </clipPath>
  </defs>
  <g id="Mask_Group_7" data-name="Mask Group 7" transform="translate(-792 -560)" clip-path="url(#clip-path)">
    <g id="Group_4348" data-name="Group 4348" transform="translate(792 560)">
      <path id="Path_8316" data-name="Path 8316" d="M0,0H63.854V64.049H0Z" transform="translate(0 0)" fill="#8ac865"/>
      <g id="Group_4347" data-name="Group 4347" transform="translate(0.196 0)">
        <g id="Group_4346" data-name="Group 4346" clip-path="url(#clip-path-2)">
          <path id="Path_8317" data-name="Path 8317" d="M38.848,94.472c.558-3.57.354-5.928,0-10.183l14.605-14.65h24.5V94.472Z" transform="translate(-15.714 -30.149)" fill="#496073"/>
          <path id="Path_8318" data-name="Path 8318" d="M44.713,51.372c-4.14,4.922-16.56,5.23-16.56,5.23-21.161,0-18.017-21.225-18.017-34.76A141.544,141.544,0,0,0,8.218,0H67.253V66.785h-39.1a43.233,43.233,0,0,0,9.813-5.7c3.833-3.256,6.747-9.716,6.747-9.716" transform="translate(-3.48 -2.461)" fill="#e2f2ff"/>
          <path id="Path_8319" data-name="Path 8319" d="M18.57,21.113A.749.749,0,0,1,18,20.846c-2.785-3.31-4.821-1.892-4.907-1.83a.752.752,0,0,1-.9-1.2c.032-.024,3.219-2.384,6.959,2.061a.753.753,0,0,1-.574,1.239" transform="translate(-4.948 -9.286)" fill="#3787c9"/>
          <path id="Path_8320" data-name="Path 8320" d="M41.32,19.44a.744.744,0,0,1-.48-.175.752.752,0,0,1-.1-1.055c.036-.044,3.647-4.31,9.554-.733a.753.753,0,0,1-.777,1.29c-4.768-2.889-7.508.269-7.622.4a.752.752,0,0,1-.577.269" transform="translate(-16.402 -8.842)" fill="#3787c9"/>
          <path id="Path_8321" data-name="Path 8321" d="M50.914,32.937a1.338,1.338,0,1,1-1.313-1.6,1.475,1.475,0,0,1,1.313,1.6" transform="translate(-19.485 -14.922)" fill="#106aa5"/>
          <path id="Path_8322" data-name="Path 8322" d="M37.98,47.169a.653.653,0,1,1-.653-.655.654.654,0,0,1,.653.655" transform="translate(-14.846 -20.954)" fill="#106aa5" opacity="0.25"/>
          <path id="Path_8323" data-name="Path 8323" d="M20.873,48.256a.653.653,0,1,1-.653-.655.654.654,0,0,1,.653.655" transform="translate(-8.013 -21.386)" fill="#106aa5" opacity="0.25"/>
          <path id="Path_8324" data-name="Path 8324" d="M15.831,53.929a.653.653,0,1,1-.653-.655.654.654,0,0,1,.653.655" transform="translate(-5.999 -23.642)" fill="#106aa5" opacity="0.25"/>
          <path id="Path_8325" data-name="Path 8325" d="M15.085,47.066a.808.808,0,1,1-.808-.811.81.81,0,0,1,.808.811" transform="translate(-5.577 -20.851)" fill="#106aa5" opacity="0.25"/>
          <path id="Path_8326" data-name="Path 8326" d="M45.16,53.929a.653.653,0,1,1-.653-.655.654.654,0,0,1,.653.655" transform="translate(-17.714 -23.642)" fill="#106aa5" opacity="0.25"/>
          <path id="Path_8327" data-name="Path 8327" d="M50.043,46.876a.653.653,0,1,1-.653-.655.654.654,0,0,1,.653.655" transform="translate(-19.664 -20.838)" fill="#106aa5" opacity="0.25"/>
          <path id="Path_8328" data-name="Path 8328" d="M60.331,43.822a.783.783,0,1,1-.783-.785.783.783,0,0,1,.783.785" transform="translate(-23.67 -19.572)" fill="#106aa5" opacity="0.25"/>
          <path id="Path_8329" data-name="Path 8329" d="M20.7,33.23a1.475,1.475,0,0,1-1.313,1.6,1.626,1.626,0,0,1,0-3.192,1.475,1.475,0,0,1,1.313,1.6" transform="translate(-7.417 -15.038)" fill="#106aa5"/>
          <path id="Path_8330" data-name="Path 8330" d="M23.894,56.584a4.472,4.472,0,0,1-2.528-.754,3.279,3.279,0,0,1-1.52-2.653A4.1,4.1,0,0,1,21.418,49.9c.848-.822,1.725-1.671,1.725-4.377a.751.751,0,1,1,1.5,0c0,3.345-1.211,4.518-2.183,5.46a2.646,2.646,0,0,0-1.114,2.192,1.784,1.784,0,0,0,.862,1.407,3.293,3.293,0,0,0,3.074.22.752.752,0,0,1,.555,1.4,5.253,5.253,0,0,1-1.944.381" transform="translate(-8.125 -20.262)" fill="#106aa5"/>
          <path id="Path_8331" data-name="Path 8331" d="M35.733,69.186l-.286,0h-.2a.9.9,0,0,1,0-1.807h.222c1.426.02,4.4.042,7.26-3.792a.9.9,0,1,1,1.443,1.083c-3.2,4.293-6.806,4.518-8.434,4.518" transform="translate(-13.914 -27.597)" fill="#496073"/>
        </g>
      </g>
    </g>
  </g>
</svg>
