<svg id="Component_134_1" data-name="Component 134 – 1" xmlns="http://www.w3.org/2000/svg" xmlns:xlink="http://www.w3.org/1999/xlink" width="76" height="67.36" viewBox="0 0 76 67.36">
  <defs>
    <clipPath id="clip-path">
      <path id="Rectangle_2897" data-name="Rectangle 2897" d="M0,0H76a0,0,0,0,1,0,0V67.36a0,0,0,0,1,0,0H4a4,4,0,0,1-4-4V0A0,0,0,0,1,0,0Z" transform="translate(16 364.64)" fill="#fff"/>
    </clipPath>
    <linearGradient id="linear-gradient" x1="0.26" y1="0.253" x2="1.276" y2="1.401" gradientUnits="objectBoundingBox">
      <stop offset="0" stop-color="#34bc83"/>
      <stop offset="1" stop-color="#fff"/>
    </linearGradient>
  </defs>
  <g id="Mask_Group_39" data-name="Mask Group 39" transform="translate(-16 -364.64)" clip-path="url(#clip-path)">
    <g id="Group_4581" data-name="Group 4581">
      <path id="recycling_FILL0_wght600_GRAD0_opsz48" d="M26.742,25.59l6.83-11.333-4.5-7.58a3.09,3.09,0,0,0-2.739-1.5,2.917,2.917,0,0,0-2.664,1.5l-7.58,12.609ZM56.688,46.754,49.783,35.2,60.59,29.042l4.953,8.331a5.846,5.846,0,0,1,.863,2.965,6.2,6.2,0,0,1-.638,2.965,6.058,6.058,0,0,1-2.327,2.552,6.165,6.165,0,0,1-3.227.9Zm-8.931,21.69L35.373,55.986,47.756,43.6v6.229h14.71l-4.428,9.006a6.818,6.818,0,0,1-2.364,2.477,6.105,6.105,0,0,1-3.265.9H47.756ZM17.811,62.215a5.318,5.318,0,0,1-2.852-.788,4.715,4.715,0,0,1-1.876-2.139,5.229,5.229,0,0,1-.638-2.627,5.005,5.005,0,0,1,.788-2.552l2.627-4.278H29.219V62.215Zm-7.73-8.856L5.128,43.3a5.034,5.034,0,0,1-.751-2.927,6.094,6.094,0,0,1,.976-3l1.2-2.176L1.3,32.044l16.961-4.2,4.2,17.037-5.254-3.3ZM51.959,26.866,35,22.588l5.329-3.152L30.645,3.3H41.6a5.709,5.709,0,0,1,3,.863,7.3,7.3,0,0,1,2.327,2.214l3.978,6.68,5.329-3.227Z" transform="translate(7.129 370.494)" fill="url(#linear-gradient)"/>
      <g id="Group_4543" data-name="Group 4543" transform="translate(-5 -36)">
        <g id="Rectangle_2879" data-name="Rectangle 2879" transform="translate(48 436)" fill="#d6ffee" stroke="rgba(52,187,130,0.3)" stroke-width="0.4">
          <rect width="48" height="17" rx="8.5" stroke="none"/>
          <rect x="0.2" y="0.2" width="47.6" height="16.6" rx="8.3" fill="none"/>
        </g>
        <text id="RECYCLE" transform="translate(52 440)" fill="#34bb82" font-size="8" font-family="Roboto-Bold, Roboto" font-weight="700"><tspan x="2" y="8">RECYCLE</tspan></text>
      </g>
    </g>
  </g>
</svg>
