<svg id="Component_41_1" data-name="Component 41 – 1" xmlns="http://www.w3.org/2000/svg" width="16" height="16" viewBox="0 0 16 16">
  <g id="Group_3549" data-name="Group 3549">
    <path id="Path_557" data-name="Path 557" d="M13.667,3H4.778A1.775,1.775,0,0,0,3.009,4.778L3,17.222A1.775,1.775,0,0,0,4.769,19H17.222A1.783,1.783,0,0,0,19,17.222V8.333ZM4.778,17.222V4.778h8V9.222h4.444v8ZM8.333,7.444a.889.889,0,1,1-.889-.889A.892.892,0,0,1,8.333,7.444Zm0,3.556a.889.889,0,1,1-.889-.889A.892.892,0,0,1,8.333,11Zm0,3.556a.889.889,0,1,1-.889-.889A.892.892,0,0,1,8.333,14.556Z" transform="translate(-3 -3)"/>
  </g>
</svg>
