<svg id="Component_135_1" data-name="Component 135 – 1" xmlns="http://www.w3.org/2000/svg" xmlns:xlink="http://www.w3.org/1999/xlink" width="76" height="67.36" viewBox="0 0 76 67.36">
  <defs>
    <clipPath id="clip-path">
      <path id="Rectangle_2898" data-name="Rectangle 2898" d="M0,0H76a0,0,0,0,1,0,0V67.36a0,0,0,0,1,0,0H4a4,4,0,0,1-4-4V0A0,0,0,0,1,0,0Z" transform="translate(16 532.64)" fill="#fff"/>
    </clipPath>
    <linearGradient id="linear-gradient" x1="0.099" y1="0.247" x2="0.961" y2="0.684" gradientUnits="objectBoundingBox">
      <stop offset="0" stop-color="#3787c9"/>
      <stop offset="1" stop-color="#f2fffa"/>
    </linearGradient>
    <linearGradient id="linear-gradient-2" x1="1.141" y1="0.557" x2="-0.276" y2="0.453" gradientUnits="objectBoundingBox">
      <stop offset="0" stop-color="#3787c9"/>
      <stop offset="1" stop-color="#e3fdf3"/>
    </linearGradient>
  </defs>
  <g id="Mask_Group_40" data-name="Mask Group 40" transform="translate(-16 -532.64)" clip-path="url(#clip-path)">
    <g id="Group_4584" data-name="Group 4584">
      <g id="Group_4582" data-name="Group 4582" transform="matrix(0.017, 1, -1, 0.017, 416.981, 376.198)">
        <path id="Path_8315" data-name="Path 8315" d="M206.726,389.051a17.227,17.227,0,0,1-32.156-8.61h5.907l-12-12.488-12,12.488h6.093a29.232,29.232,0,0,0,52.674,17.473Z" fill="url(#linear-gradient)"/>
        <path id="Path_8316" data-name="Path 8316" d="M177.485,372.474a17.227,17.227,0,0,1,32.156,8.61h-5.906l12,12.488,12-12.488h-6.094a29.231,29.231,0,0,0-52.673-17.473Z" fill="url(#linear-gradient-2)"/>
      </g>
      <g id="Group_4583" data-name="Group 4583" transform="translate(-8 132)">
        <g id="Rectangle_2879" data-name="Rectangle 2879" transform="translate(48 436)" fill="#e8f7ff" stroke="rgba(55,135,201,0.3)" stroke-width="0.4">
          <rect width="48" height="17" rx="8.5" stroke="none"/>
          <rect x="0.2" y="0.2" width="47.6" height="16.6" rx="8.3" fill="none"/>
        </g>
        <text id="REUSE" transform="translate(52 440)" fill="#3787c9" font-size="8" font-family="Roboto-Bold, Roboto" font-weight="700"><tspan x="7" y="8">REUSE</tspan></text>
      </g>
    </g>
  </g>
</svg>
